<svg width="24" height="24" viewBox="0 0 24 24" fill="none" xmlns="http://www.w3.org/2000/svg">
<path fill-rule="evenodd" clip-rule="evenodd" d="M7.6567 14.6953C7.02009 14.0587 6.17813 13.7096 5.28996 13.7096C4.40179 13.7096 3.55982 14.0638 2.92321 14.7004C2.28661 15.337 1.9375 16.179 1.9375 17.0672C1.9375 17.9554 2.28661 18.7973 2.92321 19.4288C3.55982 20.0654 4.40179 20.4145 5.28996 20.4145C6.17813 20.4145 7.02009 20.0654 7.6567 19.4288C8.2933 18.7922 8.64241 17.9502 8.64241 17.062C8.64241 16.1739 8.2933 15.3319 7.6567 14.6953ZM0.5 17.062C0.5 14.4283 2.65625 12.2721 5.28996 12.2721C7.9288 12.2721 10.085 14.4283 10.0799 17.0672C10.0799 19.7009 7.92366 21.8571 5.28996 21.8571C2.65625 21.8571 0.5 19.7009 0.5 17.062ZM16.9183 3.77544C16.9183 4.68928 16.1893 5.4183 15.2754 5.4183C14.3667 5.4183 13.6326 4.68415 13.6326 3.77544C13.6326 2.8616 14.3719 2.14285 15.2857 2.14285C16.1996 2.14285 16.9183 2.8616 16.9183 3.77544ZM21.0768 14.6953C20.4402 14.0587 19.5982 13.7096 18.71 13.7096C17.8167 13.7096 16.9748 14.0638 16.3433 14.7004C15.7067 15.337 15.3576 16.179 15.3576 17.0672C15.3576 17.9554 15.7067 18.7973 16.3433 19.4339C16.9799 20.0705 17.8219 20.4196 18.71 20.4196C19.5982 20.4196 20.4402 20.0705 21.0768 19.4288C21.7134 18.7922 22.0625 17.9502 22.0625 17.062C22.0625 16.1739 21.7134 15.3319 21.0768 14.6953ZM13.9201 17.062C13.9201 14.4283 16.0763 12.2721 18.71 12.2721C21.3438 12.2721 23.5 14.4283 23.5 17.062C23.5 19.6958 21.3438 21.852 18.71 21.852C16.0763 21.852 13.9201 19.6958 13.9201 17.062ZM15.2855 8.71433H17.7498C18.2016 8.71433 18.5712 9.08397 18.5712 9.53576C18.5712 9.98755 18.2016 10.3572 17.7498 10.3572H14.8029C14.423 10.3572 14.0947 9.79252 13.6108 8.96028C13.395 8.58904 13.1482 8.16456 12.852 7.71322L10.3415 10.3572C10.6565 10.6035 11.0468 10.8305 11.4238 11.0498C12.1469 11.4704 12.8212 11.8626 12.8212 12.3081V16.9286C12.8212 17.3804 12.4516 17.75 11.9998 17.75C11.548 17.75 11.1784 17.3804 11.1784 16.9286V13.5454C11.1784 13.0717 10.7709 12.8578 9.714 12.3028C9.27018 12.0698 8.71182 11.7766 8.021 11.3788C8.00268 11.368 7.98309 11.3566 7.96247 11.3446C7.6422 11.1585 7.07123 10.8268 7.07123 9.98755C7.07123 9.5563 7.26118 9.12505 7.54868 8.83755L11.2297 5.29C11.5172 5.0025 11.9485 4.81255 12.3797 4.81255C12.9547 4.81255 13.4835 5.15138 13.771 5.62884L15.2855 8.71433Z" fill="black"/>
</svg>
